<svg width="12" height="12" viewBox="0 0 12 12" fill="none" xmlns="http://www.w3.org/2000/svg">
<path fill-rule="evenodd" clip-rule="evenodd" d="M6.5 3.20711V10C6.5 10.2761 6.27614 10.5 6 10.5C5.72386 10.5 5.5 10.2761 5.5 10V3.20711L3.35355 5.35355C3.15829 5.54882 2.84171 5.54882 2.64645 5.35355C2.45118 5.15829 2.45118 4.84171 2.64645 4.64645L5.64625 1.64665L5.64645 1.64645M6.5 3.20711L8.64645 5.35355C8.84171 5.54882 9.15829 5.54882 9.35355 5.35355C9.54882 5.15829 9.54882 4.84171 9.35355 4.64645L6.35375 1.64665L6.35355 1.64645M6.35143 1.64433C6.30398 1.59744 6.24949 1.56198 6.19139 1.53794C6.13244 1.51349 6.06779 1.5 6 1.5C5.93221 1.5 5.86756 1.51349 5.80861 1.53794C5.75051 1.56198 5.69602 1.59744 5.64857 1.64433" fill="#29598F"/>
<mask id="mask0_491_668" style="mask-type:alpha" maskUnits="userSpaceOnUse" x="2" y="1" width="8" height="10">
<path fill-rule="evenodd" clip-rule="evenodd" d="M6.5 3.20711V10C6.5 10.2761 6.27614 10.5 6 10.5C5.72386 10.5 5.5 10.2761 5.5 10V3.20711L3.35355 5.35355C3.15829 5.54882 2.84171 5.54882 2.64645 5.35355C2.45118 5.15829 2.45118 4.84171 2.64645 4.64645L5.64625 1.64665L5.64645 1.64645M6.5 3.20711L8.64645 5.35355C8.84171 5.54882 9.15829 5.54882 9.35355 5.35355C9.54882 5.15829 9.54882 4.84171 9.35355 4.64645L6.35375 1.64665L6.35355 1.64645M6.35143 1.64433C6.30398 1.59744 6.24949 1.56198 6.19139 1.53794C6.13244 1.51349 6.06779 1.5 6 1.5C5.93221 1.5 5.86756 1.51349 5.80861 1.53794C5.75051 1.56198 5.69602 1.59744 5.64857 1.64433" fill="white"/>
</mask>
<g mask="url(#mask0_491_668)">
<rect width="12" height="12" fill="#29598F"/>
</g>
</svg>
