<svg width="24" height="24" viewBox="0 0 24 24" fill="none" xmlns="http://www.w3.org/2000/svg">
<path fill-rule="evenodd" clip-rule="evenodd" d="M11.9022 21.8222C17.3023 21.8222 21.68 17.4445 21.68 12.0444C21.68 6.64431 17.3023 2.26665 11.9022 2.26665C6.5021 2.26665 2.12444 6.64431 2.12444 12.0444C2.12444 17.4445 6.5021 21.8222 11.9022 21.8222ZM11.9022 3.59998C16.566 3.59998 20.3467 7.38069 20.3467 12.0444C20.3467 16.7082 16.566 20.4889 11.9022 20.4889C7.23848 20.4889 3.45777 16.7082 3.45777 12.0444C3.45777 9.80482 4.34745 7.65694 5.93109 6.0733C7.51473 4.48966 9.66261 3.59998 11.9022 3.59998Z" fill="#A1A3AC"/>
<path fill-rule="evenodd" clip-rule="evenodd" d="M11.1955 14.7111C11.2249 14.733 11.2562 14.7523 11.2889 14.7689C11.3235 14.7962 11.3607 14.82 11.4 14.84C11.4405 14.8529 11.4822 14.8619 11.5244 14.8666C11.6052 14.8934 11.6925 14.8934 11.7733 14.8666C11.8156 14.8619 11.8573 14.8529 11.8978 14.84C11.9371 14.82 11.9743 14.7962 12.0089 14.7689C12.0416 14.7523 12.0728 14.733 12.1022 14.7111L15.4355 11.1555C15.6816 10.886 15.6652 10.4687 15.3988 10.2193C15.1324 9.96993 14.7149 9.98111 14.4622 10.2444L11.6133 13.28L8.76443 10.2444C8.51173 9.98111 8.09429 9.96993 7.82786 10.2193C7.56142 10.4687 7.54504 10.886 7.7911 11.1555L11.1955 14.7111Z" fill="#A1A3AC"/>
</svg>
