<svg width="8" height="10" viewBox="0 0 8 10" fill="none" xmlns="http://www.w3.org/2000/svg">
<path fill-rule="evenodd" clip-rule="evenodd" d="M4.5 2.20711V9C4.5 9.27614 4.27614 9.5 4 9.5C3.72386 9.5 3.5 9.27614 3.5 9V2.20711L1.35355 4.35355C1.15829 4.54882 0.841709 4.54882 0.646447 4.35355C0.451184 4.15829 0.451184 3.84171 0.646447 3.64645L3.64625 0.646645L3.64645 0.646447M4.5 2.20711L6.64645 4.35355C6.84171 4.54882 7.15829 4.54882 7.35355 4.35355C7.54882 4.15829 7.54882 3.84171 7.35355 3.64645L4.35375 0.646645L4.35355 0.646447M4.35143 0.644332C4.30398 0.597443 4.24949 0.561979 4.19139 0.537939C4.13244 0.513493 4.06779 0.5 4 0.5C3.93221 0.5 3.86756 0.513493 3.80861 0.537939C3.75051 0.561979 3.69602 0.597443 3.64857 0.644332" fill="#A1A3AC"/>
<mask id="mask0_491_162" style="mask-type:alpha" maskUnits="userSpaceOnUse" x="0" y="0" width="8" height="10">
<path fill-rule="evenodd" clip-rule="evenodd" d="M4.5 2.20711V9C4.5 9.27614 4.27614 9.5 4 9.5C3.72386 9.5 3.5 9.27614 3.5 9V2.20711L1.35355 4.35355C1.15829 4.54882 0.841709 4.54882 0.646447 4.35355C0.451184 4.15829 0.451184 3.84171 0.646447 3.64645L3.64625 0.646645L3.64645 0.646447M4.5 2.20711L6.64645 4.35355C6.84171 4.54882 7.15829 4.54882 7.35355 4.35355C7.54882 4.15829 7.54882 3.84171 7.35355 3.64645L4.35375 0.646645L4.35355 0.646447M4.35143 0.644332C4.30398 0.597443 4.24949 0.561979 4.19139 0.537939C4.13244 0.513493 4.06779 0.5 4 0.5C3.93221 0.5 3.86756 0.513493 3.80861 0.537939C3.75051 0.561979 3.69602 0.597443 3.64857 0.644332" fill="white"/>
</mask>
<g mask="url(#mask0_491_162)">
</g>
</svg>
